<?xml version="1.0" standalone="no"?>
<!DOCTYPE svg PUBLIC "-//W3C//DTD SVG 20010904//EN"
 "http://www.w3.org/TR/2001/REC-SVG-20010904/DTD/svg10.dtd">
<svg version="1.0" xmlns="http://www.w3.org/2000/svg"
 width="1536.000000pt" height="1536.000000pt" viewBox="0 0 1536.000000 1536.000000"
 preserveAspectRatio="xMidYMid meet">

<g transform="translate(0.000000,1536.000000) scale(0.100000,-0.100000)"
fill="#000000" stroke="none">
<path d="M0 7680 l0 -7680 7680 0 7680 0 0 7680 0 7680 -7680 0 -7680 0 0
-7680z m8060 2051 c225 -39 432 -109 629 -212 585 -306 1005 -926 1072 -1579
16 -157 6 -484 -16 -536 -30 -72 -95 -124 -155 -124 -43 0 -80 21 -125 71
l-38 42 7 174 c12 336 -40 599 -177 884 -106 219 -291 451 -473 591 -455 349
-998 460 -1539 313 -271 -74 -434 -138 -725 -285 -542 -273 -1060 -645 -1591
-1142 -213 -199 -585 -619 -764 -862 -88 -119 -125 -146 -197 -146 -112 0
-187 126 -140 234 24 52 162 237 311 416 270 323 643 701 952 962 97 82 421
329 519 395 234 158 539 338 747 442 419 209 798 335 1113 370 52 6 111 13
130 15 82 10 351 -4 460 -23z m-143 -956 c222 -36 421 -143 587 -315 214 -222
316 -487 316 -822 0 -498 -346 -955 -816 -1079 -78 -21 -111 -24 -269 -24
-164 0 -189 3 -280 28 -201 54 -416 188 -544 339 -194 227 -283 498 -267 813
20 414 254 778 622 965 192 98 424 132 651 95z m3623 -423 c43 -21 80 -75 80
-116 -1 -71 -66 -172 -266 -411 -186 -224 -230 -272 -474 -519 -294 -298 -543
-516 -832 -729 -792 -582 -1546 -930 -2138 -988 -412 -39 -831 47 -1183 245
-272 153 -431 284 -601 494 -149 186 -243 341 -309 512 -116 299 -147 468
-147 795 0 264 13 334 67 382 44 40 89 50 150 33 50 -15 76 -37 102 -90 16
-31 18 -59 13 -255 -5 -261 10 -394 64 -573 58 -191 186 -433 297 -562 255
-297 465 -440 837 -573 84 -31 285 -68 410 -77 318 -23 613 39 1028 216 188
81 549 271 720 380 532 338 859 599 1273 1013 248 249 475 504 604 679 75 101
99 126 140 148 56 28 101 27 165 -4z"/>
<path d="M4027 7064 c-3 -4 -3 -20 0 -37 5 -22 1 -33 -12 -43 -10 -8 -16 -16
-13 -19 3 -3 12 0 19 8 8 7 22 16 32 20 9 3 17 14 16 24 0 11 -3 13 -6 6 -10
-26 -25 -13 -19 17 5 28 -2 38 -17 24z"/>
<path d="M7672 8408 c-167 -19 -333 -155 -382 -315 -36 -116 -20 -248 43 -355
25 -43 95 -113 172 -174 l39 -30 -18 -85 c-10 -46 -33 -149 -52 -229 -60 -258
-64 -277 -64 -307 0 -22 7 -33 25 -41 35 -16 529 -16 574 -1 43 15 47 41 23
151 -11 51 -25 118 -30 148 -6 30 -25 121 -43 202 -18 82 -29 157 -25 171 3
14 28 41 56 62 88 64 148 145 176 235 13 42 14 52 15 127 1 84 -20 156 -66
228 -102 159 -257 234 -443 213z"/>
<path d="M7436 7232 c-3 -5 -8 -29 -10 -53 -5 -43 -4 -40 14 29 8 31 7 41 -4
24z"/>
<path d="M7412 7110 c0 -14 2 -19 5 -12 2 6 2 18 0 25 -3 6 -5 1 -5 -13z"/>
<path d="M7383 7005 c-3 -9 -3 -18 -1 -21 3 -3 8 4 11 16 6 23 -1 27 -10 5z"/>
</g>
</svg>
